<svg xmlns="http://www.w3.org/2000/svg" xmlns:xlink="http://www.w3.org/1999/xlink" width="814" height="482" viewBox="0 0 814 482"><defs><filter id="a" x="0" y="0" width="814" height="482" filterUnits="userSpaceOnUse"><feOffset dy="12" input="SourceAlpha"/><feGaussianBlur stdDeviation="14.5" result="b"/><feFlood flood-opacity="0.039"/><feComposite operator="in" in2="b"/><feComposite in="SourceGraphic"/></filter></defs><g transform="translate(-553.5 -4543.5)"><g transform="matrix(1, 0, 0, 1, 553.5, 4543.5)" filter="url(#a)"><rect width="727" height="395" rx="26" transform="translate(43.5 31.5)" fill="#00183a"/></g><g transform="translate(55 390)"><circle cx="70" cy="70" r="70" transform="translate(842 4313)" fill="#fff"/><circle cx="43" cy="43" r="43" transform="translate(869 4340)" fill="#6805df"/><path d="M13.359,7.464a5,5,0,0,1,8.652,0L31.02,23.009a5,5,0,0,1-4.326,7.507H8.677a5,5,0,0,1-4.326-7.507Z" transform="translate(933.153 4365.314) rotate(90)" fill="#fff"/></g></g></svg>